<svg width="48.000000" height="48.000000" viewBox="0 0 48 48" fill="none" xmlns="http://www.w3.org/2000/svg" xmlns:xlink="http://www.w3.org/1999/xlink">
	<desc>
			Created with Pixso.
	</desc>
	<defs/>
	<circle id="Ellipse 168" cx="24.000000" cy="24.000000" r="24.000000" fill="#FFB577" fill-opacity="0.070000"/>
	<path id="Vector" d="M31.7104 28.7655L29.269 26.843C29.4321 26.1178 29.271 25.418 28.7842 24.816C27.8076 23.6062 27.5923 22.1743 27.3657 20.6587C27.0371 18.4675 26.6641 15.9846 23.9102 13.8108C22.3887 12.6095 20.8242 12 19.2607 12C16.3892 12 14.5776 14.046 14.5093 14.1248C14.3887 14.2592 11.5415 17.4615 12.064 21.2867C12.3823 23.6172 13.8726 25.6369 16.4946 27.2917L16.5454 27.3204C16.7563 27.426 21.7402 29.8958 23.2314 30.359C23.9019 30.5669 24.4541 30.6644 24.9668 30.6644C25.4121 30.6644 25.8252 30.5846 26.2075 30.4308L28.959 32.1687C28.8486 32.9987 28.8052 34.817 30.3467 35.6659C30.7446 35.8849 31.1904 35.9998 31.6436 36C32.2925 36 32.9346 35.7651 33.436 35.3101C34.0479 34.7548 34.3257 33.9886 34.2261 33.2023C34.7124 33.0814 35.333 32.8216 35.7031 32.2673C35.9473 31.9008 36.166 31.2653 35.8223 30.3183C35.1182 28.3714 32.9775 28.4175 31.7104 28.7655ZM27.0635 28.1193L27.0093 28.2072C26.3076 29.3702 25.5078 29.5041 24.9678 29.5041C24.5728 29.5041 24.1299 29.4235 23.5723 29.2509C22.2212 28.8317 17.4814 26.4904 17.0825 26.2935C14.7822 24.8348 13.478 23.1004 13.2075 21.1364C12.7549 17.8524 15.3379 14.9333 15.3696 14.8982C15.3848 14.881 16.9248 13.1611 19.2612 13.1611C20.5605 13.1611 21.8857 13.6867 23.1987 14.7238C25.5923 16.6138 25.8989 18.6628 26.2251 20.8326C26.4653 22.4349 26.7144 24.0927 27.8892 25.548C28.1211 25.8344 28.3794 26.3051 27.9541 27.0809C27.646 27.644 27.1465 28.0523 27.1431 28.0558L27.0635 28.1193ZM34.7476 31.6182C34.4839 32.016 33.7266 32.1379 33.4844 32.1494C33.3911 32.1531 33.3003 32.1794 33.2197 32.2261C33.1392 32.2728 33.0708 32.3384 33.0205 32.4175C32.9707 32.4965 32.9404 32.5866 32.9326 32.68C32.9248 32.7734 32.9395 32.8672 32.9756 32.9537C33.3071 33.7472 32.8687 34.2632 32.665 34.4475C32.2646 34.8108 31.564 35.0133 30.9009 34.6476C29.6938 33.9832 30.1499 32.0438 30.1548 32.0259C30.1846 31.9071 30.1758 31.7819 30.1304 31.6683C30.085 31.5546 30.0049 31.4585 29.9014 31.3936L27.2686 29.731C27.5269 29.48 27.7539 29.1982 27.9443 28.892C28.2627 28.6089 28.5444 28.2869 28.7832 27.9334L31.2368 29.8652C31.313 29.9246 31.4028 29.964 31.4976 29.98C31.5928 29.9961 31.6899 29.9882 31.7812 29.9572C31.8779 29.9226 34.1714 29.1467 34.7393 30.7148C34.8823 31.1064 34.8843 31.4111 34.7476 31.6182Z" fill="#FFB577" fill-opacity="1.000000" fill-rule="nonzero"/>
	<path id="Vector" d="M29.269 26.843C29.4321 26.1178 29.271 25.418 28.7842 24.816C27.8076 23.6062 27.5923 22.1743 27.3657 20.6587C27.0371 18.4675 26.6641 15.9846 23.9102 13.8108C22.3887 12.6095 20.8242 12 19.2607 12C16.3892 12 14.5776 14.046 14.5093 14.1248C14.3887 14.2592 11.5415 17.4615 12.064 21.2867C12.3823 23.6172 13.8726 25.6369 16.4946 27.2917L16.5454 27.3204C16.7563 27.426 21.7402 29.8958 23.2314 30.359C23.9019 30.5669 24.4541 30.6644 24.9668 30.6644C25.4121 30.6644 25.8252 30.5846 26.2075 30.4308L28.959 32.1687C28.8486 32.9987 28.8052 34.817 30.3467 35.6659C30.7446 35.8849 31.1904 35.9998 31.6436 36C32.2925 36 32.9346 35.7651 33.436 35.3101C34.0479 34.7548 34.3257 33.9886 34.2261 33.2023C34.7124 33.0814 35.333 32.8216 35.7031 32.2673C35.9473 31.9008 36.166 31.2653 35.8223 30.3183C35.1182 28.3714 32.9775 28.4175 31.7104 28.7655L29.269 26.843ZM31.8252 28.2192Q33.918 27.7071 35.1128 28.518Q35.895 29.0491 36.2925 30.1478Q36.6553 31.1487 36.4023 31.9564Q36.3057 32.2648 36.1191 32.5451Q36.0469 32.6529 35.9644 32.7518Q35.5142 33.2904 34.7495 33.566Q34.7485 34.0522 34.5957 34.4846Q34.3613 35.1455 33.772 35.6805Q33.3281 36.0831 32.8066 36.288Q32.2666 36.5 31.6431 36.5Q31.2373 36.4998 30.856 36.4025Q30.4678 36.3035 30.1055 36.1039Q29.4458 35.7405 29.0415 35.1897Q28.2749 34.1445 28.4277 32.4244L26.147 30.984L26.146 30.9844Q25.585 31.1644 24.9668 31.1644Q24.1406 31.1644 23.0835 30.8365Q21.4399 30.326 16.3218 27.7676L16.3101 27.7618L16.2378 27.7209L16.228 27.7146Q12.7524 25.5214 11.8301 22.5385Q11.6514 21.9612 11.5684 21.3543Q11.3882 20.0325 11.5938 18.7739Q12.0225 16.1485 14.1313 13.7975Q15.0303 12.7588 16.165 12.1897Q17.54 11.5 19.2607 11.5Q19.4336 11.5 19.606 11.509Q21.9561 11.631 24.2197 13.4183Q24.3311 13.506 24.439 13.5974Q27.1577 15.9011 27.8599 20.5847Q28.2808 23.3966 29.1729 24.5015Q29.6372 25.0759 29.7759 25.7203Q29.8706 26.1609 29.8125 26.6343L31.8252 28.2192ZM27.0635 28.1193L27.0093 28.2072C26.3076 29.3702 25.5078 29.5041 24.9678 29.5041C24.5728 29.5041 24.1299 29.4235 23.5723 29.2509C22.2212 28.8317 17.4814 26.4904 17.0825 26.2935C14.7822 24.8348 13.478 23.1004 13.2075 21.1364C12.7549 17.8524 15.3379 14.9333 15.3696 14.8982C15.3848 14.881 16.9248 13.1611 19.2612 13.1611C20.5605 13.1611 21.8857 13.6867 23.1987 14.7238C25.5923 16.6138 25.8989 18.6628 26.2251 20.8326C26.4653 22.4349 26.7144 24.0927 27.8892 25.548C28.1211 25.8344 28.3794 26.3051 27.9541 27.0809C27.646 27.644 27.1465 28.0523 27.1431 28.0558L27.0635 28.1193ZM26.8252 27.6698L26.6831 27.7829L26.583 27.9461L26.5815 27.9489Q26.1172 28.7186 25.4717 28.9268Q25.2319 29.0041 24.9678 29.0041Q24.4658 29.0041 23.7202 28.7733Q22.4175 28.3691 17.3281 25.8571Q14.3345 23.9509 13.7803 21.4944Q13.7324 21.2833 13.7031 21.0682Q13.5752 20.1418 13.7021 19.2518Q14.0039 17.1409 15.7393 15.2348Q16.4097 14.4775 17.2505 14.0846Q18.1572 13.6611 19.2612 13.6611Q21.0464 13.6611 22.8892 15.1162Q25.126 16.8828 25.73 20.9037L25.7305 20.9069L25.7305 20.9071Q26.2397 24.3013 27.5 25.8621Q27.6079 25.9948 27.6465 26.1454Q27.7266 26.4553 27.5156 26.8406Q27.2671 27.2947 26.8252 27.6698ZM33.4624 31.6499L33.4604 31.65Q33.3311 31.6555 33.21 31.6904Q33.0854 31.7263 32.9692 31.7932Q32.8564 31.8586 32.7646 31.9464Q32.6699 32.0364 32.5981 32.1501Q32.5278 32.2612 32.4868 32.3821Q32.4453 32.5049 32.4341 32.638Q32.4233 32.7706 32.4434 32.8982Q32.4634 33.0247 32.5142 33.1464Q32.6411 33.4503 32.5728 33.7011Q32.5166 33.907 32.3291 34.0771Q32.0654 34.3167 31.7754 34.3535Q31.4727 34.3921 31.1421 34.2097Q30.9414 34.0992 30.8052 33.9351Q30.3325 33.3651 30.6396 32.1482Q30.6826 31.9753 30.6704 31.8065Q30.6587 31.6426 30.5947 31.4824Q30.5288 31.3178 30.4204 31.1888Q30.314 31.0624 30.1675 30.9702L28.0376 29.6255Q28.1938 29.4295 28.3301 29.2174Q28.5522 29.015 28.75 28.7913Q28.8145 28.7184 28.8765 28.6432L30.9277 30.2581Q31.0464 30.3506 31.1807 30.4062Q31.2925 30.4525 31.4146 30.4731Q31.5488 30.4957 31.6807 30.4852Q31.813 30.4746 31.9424 30.4305Q33.355 29.9241 33.9502 30.413Q34.1611 30.5864 34.269 30.8851Q34.3984 31.2394 34.3306 31.3425Q34.1489 31.6165 33.4648 31.6498L33.4624 31.6499ZM28.4834 28.3338C28.5894 28.2054 28.6895 28.0718 28.7832 27.9334L29.1768 28.2434L31.2368 29.8652C31.313 29.9246 31.4028 29.964 31.4976 29.98C31.5928 29.9961 31.6899 29.9882 31.7812 29.9572C31.8779 29.9226 34.1714 29.1467 34.7393 30.7148C34.8823 31.1064 34.8843 31.4111 34.7476 31.6182C34.4839 32.016 33.7266 32.1379 33.4844 32.1494C33.3911 32.1531 33.3003 32.1794 33.2197 32.2261C33.1392 32.2728 33.0708 32.3384 33.0205 32.4175C32.9707 32.4965 32.9404 32.5866 32.9326 32.68C32.9248 32.7734 32.9395 32.8672 32.9756 32.9537C33.3071 33.7472 32.8687 34.2632 32.665 34.4475C32.2646 34.8108 31.564 35.0133 30.9009 34.6476C29.6938 33.9832 30.1499 32.0438 30.1548 32.0259C30.1846 31.9071 30.1758 31.7819 30.1304 31.6683C30.085 31.5546 30.0049 31.4585 29.9014 31.3936L27.7021 30.0048L27.2686 29.731C27.3901 29.6128 27.5049 29.4878 27.6118 29.3566C27.7324 29.2092 27.8438 29.054 27.9443 28.892C28.1382 28.7198 28.3184 28.5331 28.4834 28.3338Z" fill="#FFB577" fill-opacity="1.000000" fill-rule="evenodd"/>
</svg>
