<svg width="48.000000" height="48.000000" viewBox="0 0 48 48" fill="none" xmlns="http://www.w3.org/2000/svg" xmlns:xlink="http://www.w3.org/1999/xlink">
	<desc>
			Created with Pixso.
	</desc>
	<defs/>
	<circle id="Ellipse 168" cx="24.000000" cy="24.000000" r="24.000000" fill="#FFB577" fill-opacity="0.070000"/>
	<path id="Vector" d="M34.0894 14.2816L34.0894 10.6996C34.0859 10.5389 34.0405 10.3818 33.958 10.2438C33.8755 10.1058 33.7588 9.99152 33.6191 9.91217C33.479 9.83282 33.3213 9.79102 33.1602 9.79095C32.9995 9.79089 32.8418 9.83252 32.7017 9.91174L31.6436 10.5485L30.5854 9.91174C30.4424 9.82684 30.2793 9.78241 30.1133 9.7832C29.9468 9.784 29.7842 9.83002 29.6421 9.91632L28.5884 10.5485L27.5303 9.91632C27.3882 9.82983 27.2251 9.78406 27.0586 9.78406C26.8921 9.78406 26.729 9.82983 26.5869 9.91632L25.5332 10.5485L24.4795 9.91632C24.3374 9.82983 24.1743 9.78406 24.0078 9.78406C23.8413 9.78406 23.6782 9.82983 23.5361 9.91632L22.4824 10.5485L21.4243 9.91632C21.2817 9.83075 21.1187 9.78552 20.9526 9.78552C20.7866 9.78552 20.6235 9.83075 20.481 9.91632L19.4272 10.5485L18.374 9.91632C18.2314 9.82983 18.0684 9.78406 17.9019 9.78406C17.7354 9.78406 17.5723 9.82983 17.4302 9.91632L16.3765 10.5485L15.3232 9.91632C15.1841 9.83569 15.0259 9.79285 14.8647 9.79193C14.7041 9.79108 14.5454 9.83221 14.4053 9.91138C14.2651 9.99048 14.1479 10.1048 14.0654 10.243C13.9834 10.3813 13.9385 10.5386 13.9351 10.6996L13.9351 14.2816C12.7217 20.3841 12.7217 26.666 13.9351 32.7686L13.9351 36.3505C13.939 36.5112 13.9844 36.6683 14.0669 36.8063C14.1494 36.9443 14.2661 37.0585 14.4058 37.1379C14.5459 37.2173 14.7036 37.259 14.8643 37.2591C15.0254 37.2592 15.1831 37.2176 15.3232 37.1384L16.3813 36.5016L17.4395 37.1384C17.5825 37.2233 17.7456 37.2677 17.9116 37.2669C18.0781 37.2661 18.2407 37.22 18.3828 37.1337L19.4365 36.5016L20.4946 37.1337C20.6367 37.2203 20.7998 37.2661 20.9663 37.2661C21.1328 37.2661 21.2959 37.2203 21.438 37.1337L22.4917 36.5016L23.5454 37.1337C23.6875 37.2203 23.8506 37.2661 24.0171 37.2661C24.1836 37.2661 24.3467 37.2203 24.4888 37.1337L25.5425 36.5016L26.6006 37.1337C26.7427 37.2194 26.9058 37.2646 27.0723 37.2646C27.2383 37.2646 27.4014 37.2194 27.5439 37.1337L28.5977 36.5016L29.6509 37.1337C29.793 37.2203 29.9565 37.2661 30.123 37.2661C30.2891 37.2661 30.4526 37.2203 30.5947 37.1337L31.6479 36.5016L32.7017 37.1337C32.8413 37.2138 32.999 37.2562 33.1597 37.2568C33.3203 37.2574 33.4785 37.2162 33.6187 37.1372C33.7588 37.0582 33.8755 36.9441 33.958 36.8062C34.0405 36.6683 34.0859 36.5112 34.0894 36.3505L34.0894 32.7686C35.3032 26.666 35.3032 20.3841 34.0894 14.2816ZM15.7676 12.3165L15.9048 12.399C16.0469 12.4855 16.2104 12.5312 16.3765 12.5312C16.543 12.5312 16.7065 12.4855 16.8486 12.399L17.9019 11.7668L18.9556 12.399C19.0977 12.4855 19.2607 12.5312 19.4272 12.5312C19.5938 12.5312 19.7568 12.4855 19.8989 12.399L20.9526 11.7668L22.0107 12.399C22.1533 12.4846 22.3164 12.5298 22.4824 12.5298C22.6489 12.5298 22.812 12.4846 22.9541 12.399L24.0078 11.7668L25.0615 12.399C25.2036 12.4855 25.3667 12.5312 25.5332 12.5312C25.6997 12.5312 25.8628 12.4855 26.0049 12.399L27.0586 11.7668L28.1167 12.399C28.2588 12.4857 28.4219 12.5317 28.5884 12.5318C28.7549 12.5305 28.9175 12.4846 29.0601 12.399L30.1138 11.7668L31.1719 12.4036C31.3149 12.4868 31.478 12.5307 31.6436 12.5307C31.8091 12.5307 31.9722 12.4868 32.1152 12.4036L32.2573 12.3165L32.2573 13.4479L15.7676 13.4479L15.7676 12.3165ZM32.2573 34.7336L32.1201 34.6511C31.9775 34.5646 31.8145 34.5188 31.6479 34.5188C31.4819 34.5188 31.3184 34.5646 31.1763 34.6511L30.123 35.2832L29.0693 34.6511C28.9272 34.5646 28.7642 34.5188 28.5977 34.5188C28.4312 34.5188 28.2681 34.5646 28.1255 34.6511L27.0723 35.2832L26.0142 34.6511C25.8716 34.5655 25.7085 34.5203 25.5425 34.5203C25.376 34.5203 25.2129 34.5655 25.0703 34.6511L24.0171 35.2832L22.9634 34.6511C22.8213 34.5646 22.6582 34.5188 22.4917 34.5188C22.3252 34.5188 22.1621 34.5646 22.02 34.6511L20.9663 35.2832L19.9082 34.6511C19.7656 34.5655 19.6025 34.5203 19.4365 34.5203C19.2705 34.5203 19.1074 34.5655 18.9648 34.6511L17.9111 35.2832L16.853 34.6465C16.71 34.5633 16.5469 34.5194 16.3813 34.5194C16.2153 34.5194 16.0527 34.5633 15.9097 34.6465L15.7676 34.7336L15.7676 33.6022L32.2573 33.6022L32.2573 34.7336ZM32.4175 31.77L15.6074 31.77C14.604 26.3192 14.604 20.731 15.6074 15.2801L32.4175 15.2801C33.4209 20.731 33.4209 26.3192 32.4175 31.77Z" fill="#FFB577" fill-opacity="1.000000" fill-rule="nonzero"/>
	<path id="Vector" d="M28.0752 20.8273C27.8071 20.5234 27.4771 20.2802 27.1074 20.1135C26.7378 19.9469 26.3369 19.8608 25.9316 19.8608L25.501 19.8608C25.3086 19.8635 25.1167 19.885 24.9287 19.9249L24.9287 18.4866C24.9287 18.2437 24.832 18.0107 24.6602 17.8389C24.4883 17.6671 24.2554 17.5706 24.0122 17.5706C23.7695 17.5706 23.5366 17.6671 23.3647 17.8389C23.1929 18.0107 23.0962 18.2437 23.0962 18.4866L23.0962 19.9249C22.9082 19.885 22.7163 19.8635 22.5239 19.8608L22.0933 19.8608C21.6875 19.861 21.2866 19.9473 20.917 20.1141C20.5469 20.281 20.2168 20.5245 19.9487 20.8285C19.6802 21.1326 19.479 21.4902 19.3594 21.8777C19.2393 22.2652 19.2031 22.6738 19.2534 23.0764L19.6836 26.5163C19.7715 27.2078 20.1084 27.8436 20.6313 28.3047C21.1538 28.7659 21.8267 29.0208 22.5239 29.0219C23.0498 29.0211 23.5654 28.8736 24.0122 28.5959C24.4595 28.8736 24.9751 29.0211 25.501 29.0219C26.1982 29.0208 26.8711 28.7659 27.3936 28.3047C27.9165 27.8436 28.2529 27.2078 28.3408 26.5163L28.7715 23.0764C28.8213 22.6735 28.7847 22.2648 28.665 21.8771C28.5449 21.4894 28.3438 21.1316 28.0752 20.8273ZM26.9531 22.8519L26.5225 26.2873C26.4907 26.5361 26.3696 26.7648 26.1816 26.9308C25.9937 27.0969 25.752 27.1888 25.501 27.1896C25.3511 27.1884 25.2031 27.1541 25.0674 27.0892C24.9321 27.0243 24.813 26.9304 24.7178 26.814C24.6313 26.7108 24.5234 26.6277 24.4019 26.5708C24.2798 26.5138 24.147 26.4843 24.0122 26.4843C23.8779 26.4843 23.7451 26.5138 23.623 26.5708C23.501 26.6277 23.3931 26.7108 23.3071 26.814C23.2119 26.9304 23.0928 27.0243 22.957 27.0892C22.8218 27.1541 22.6738 27.1884 22.5239 27.1896C22.2729 27.1888 22.0312 27.0969 21.8433 26.9308C21.6553 26.7648 21.5342 26.5361 21.5024 26.2873L21.0718 22.8519C21.0537 22.707 21.0669 22.56 21.1104 22.4206C21.1533 22.2811 21.2256 22.1524 21.3223 22.0429C21.4185 21.9334 21.5371 21.8456 21.6699 21.7853C21.8032 21.725 21.9473 21.6935 22.0933 21.693L22.5239 21.693C22.6738 21.6943 22.8218 21.7285 22.957 21.7935C23.0928 21.8584 23.2119 21.9523 23.3071 22.0686C23.3965 22.1671 23.5054 22.2457 23.6265 22.2996C23.748 22.3534 23.8794 22.3812 24.0122 22.3812C24.1455 22.3812 24.2769 22.3534 24.3979 22.2996C24.5195 22.2457 24.6284 22.1671 24.7178 22.0686C24.813 21.9523 24.9321 21.8584 25.0674 21.7935C25.2031 21.7285 25.3511 21.6943 25.501 21.693L25.9316 21.693C26.0776 21.6935 26.2217 21.725 26.3545 21.7853C26.4878 21.8456 26.6064 21.9334 26.7026 22.0429C26.7993 22.1524 26.8716 22.2811 26.9146 22.4206C26.958 22.56 26.9707 22.707 26.9531 22.8519Z" fill="#FFB577" fill-opacity="1.000000" fill-rule="nonzero"/>
</svg>
