<svg width="48.000000" height="48.000000" viewBox="0 0 48 48" fill="none" xmlns="http://www.w3.org/2000/svg" xmlns:xlink="http://www.w3.org/1999/xlink">
	<desc>
			Created with Pixso.
	</desc>
	<defs/>
	<circle id="Ellipse 167" cx="24.000000" cy="24.000000" r="24.000000" fill="#FFB577" fill-opacity="0.070000"/>
	<path id="Vector" d="M23 28.91L23 33L20 33L20 35L28 35L28 33L25 33L25 28.91C26.397 28.6738 27.6655 27.9509 28.5806 26.8692C29.4956 25.7875 29.9985 24.4169 30 23L30 15L18 15L18 23C18.0015 24.4169 18.5044 25.7875 19.4194 26.8692C20.3345 27.9509 21.603 28.6738 23 28.91ZM20 17L28 17L28 21L20 21L20 17Z" fill="#FFB577" fill-opacity="1.000000" fill-rule="nonzero"/>
</svg>
