<svg width="48.000000" height="48.000000" viewBox="0 0 48 48" fill="none" xmlns="http://www.w3.org/2000/svg" xmlns:xlink="http://www.w3.org/1999/xlink">
	<desc>
			Created with Pixso.
	</desc>
	<defs/>
	<circle id="Ellipse 168" cx="24.000000" cy="24.000000" r="24.000000" fill="#FFB577" fill-opacity="0.070000"/>
	<path id="Vector" d="M31.001 18.144C31.0225 18.0021 31.0132 17.8571 30.9731 17.719C30.9336 17.5809 30.8647 17.4531 30.771 17.3441C30.6753 17.2349 30.5566 17.1478 30.4238 17.0891C30.2905 17.0304 30.1465 17.0013 30.001 17.0042L30.001 15.0042C30.001 14.7389 29.896 14.4845 29.708 14.297C29.5205 14.1095 29.2661 14.0042 29.001 14.0042L27.001 14.0042L27.001 13.4141L27.7109 12.7141C27.8994 12.5258 28.0054 12.2704 28.0054 12.0042C28.0054 11.7378 27.8994 11.4824 27.7109 11.2941C27.5229 11.1058 27.2676 11 27.001 11C26.7349 11 26.4795 11.1058 26.291 11.2941L25.291 12.2941C25.1982 12.3876 25.125 12.4983 25.0752 12.6202C25.0254 12.7421 25.0005 12.8724 25.001 13.0042L25.001 14.0042L18.001 14.0042C17.7358 14.0042 17.4814 14.1095 17.2939 14.297C17.1064 14.4845 17.001 14.7389 17.001 15.0042L17.001 17.0042C16.8574 17.0028 16.7153 17.0326 16.584 17.0912C16.4531 17.1499 16.3359 17.2362 16.2412 17.3441C16.1475 17.4531 16.0786 17.5809 16.0391 17.719C15.999 17.8571 15.9897 18.0021 16.0112 18.144L18.0112 32.0741L18.0112 35.0042C18.0112 35.2693 18.1167 35.5237 18.3042 35.7112C18.4917 35.8987 18.7461 36.0042 19.0112 36.0042L28.0112 36.0042C28.2764 36.0042 28.5308 35.8987 28.7183 35.7112C28.9058 35.5237 29.0112 35.2693 29.0112 35.0042L29.0112 32.0741L31.001 18.144ZM18.1514 19.0042L28.8511 19.0042L27.1313 31.0042L19.8711 31.0042L18.1514 19.0042ZM19.001 16.0042L28.001 16.0042L28.001 17.0042L19.001 17.0042L19.001 16.0042ZM27.001 34.0042L20.001 34.0042L20.001 33.0042L27.001 33.0042L27.001 34.0042Z" fill="#FFB577" fill-opacity="1.000000" fill-rule="nonzero"/>
</svg>
