<svg width="48.000000" height="48.000000" viewBox="0 0 48 48" fill="none" xmlns="http://www.w3.org/2000/svg" xmlns:xlink="http://www.w3.org/1999/xlink">
	<desc>
			Created with Pixso.
	</desc>
	<defs/>
	<circle id="Ellipse 168" cx="24.000000" cy="24.000000" r="24.000000" fill="#FFB577" fill-opacity="0.070000"/>
	<path id="Vector" d="M28.4062 31.1544L28.4062 27.7722C28.4062 27.548 28.3237 27.3329 28.1772 27.1743C28.0308 27.0157 27.832 26.9266 27.625 26.9266L12.7812 26.9266C12.5742 26.9266 12.3755 27.0157 12.229 27.1743C12.0825 27.3329 12 27.548 12 27.7722L12 31.1544C12 31.3787 12.0825 31.5938 12.229 31.7523C12.3755 31.9109 12.5742 32 12.7812 32L27.625 32C27.832 32 28.0308 31.9109 28.1772 31.7523C28.3237 31.5938 28.4062 31.3787 28.4062 31.1544ZM26.8438 30.3088L13.5625 30.3088L13.5625 28.6178L26.8438 28.6178L26.8438 30.3088ZM14.3438 24.39C14.1367 24.39 13.938 24.479 13.7915 24.6376C13.645 24.7961 13.5625 25.0112 13.5625 25.2355C13.5625 25.4597 13.645 25.6748 13.7915 25.8334C13.938 25.9919 14.1367 26.0811 14.3438 26.0811L26.0625 26.0811C26.2695 26.0811 26.4683 25.9919 26.6147 25.8334C26.7612 25.6748 26.8438 25.4597 26.8438 25.2355C26.8438 25.0112 26.7612 24.7961 26.6147 24.6376C26.4683 24.479 26.2695 24.39 26.0625 24.39L14.3438 24.39ZM12.7812 23.5444L27.625 23.5444C27.832 23.5444 28.0308 23.4553 28.1772 23.2968C28.3237 23.1382 28.4062 22.9231 28.4062 22.6989C28.4062 22.6396 28.3125 16.7799 20.2031 16.7799C12.0938 16.7799 12 22.6396 12 22.6989C12 22.9231 12.0825 23.1382 12.229 23.2968C12.3755 23.4553 12.5742 23.5444 12.7812 23.5444ZM20.2031 18.4711C24.917 18.4711 26.2852 20.6136 26.6816 21.8533L13.7246 21.8533C14.1211 20.6136 15.4893 18.4711 20.2031 18.4711ZM36.2188 15.0887L32.1929 15.0887L31.5205 10.7219C31.5054 10.6107 31.4702 10.504 31.4165 10.408C31.3628 10.3118 31.2915 10.2283 31.208 10.1621C31.124 10.0959 31.0288 10.0486 30.9277 10.0227C30.8267 9.99683 30.7217 9.99304 30.6196 10.0115C30.5171 10.0299 30.4189 10.0703 30.3315 10.1301C30.2437 10.1901 30.1675 10.2683 30.1079 10.3604C30.0483 10.4523 30.0063 10.5563 29.9844 10.666C29.9624 10.7758 29.9609 10.8892 29.9795 10.9996L30.6089 15.0887L29.9688 15.0887C29.8628 15.0887 29.7573 15.1122 29.6597 15.1577C29.5625 15.2031 29.4741 15.2697 29.4014 15.3531C29.3281 15.4366 29.272 15.5354 29.2354 15.6433C29.1987 15.7512 29.1826 15.8661 29.1885 15.9808L29.9697 31.2009C29.981 31.4169 30.0679 31.62 30.2129 31.7686C30.3579 31.9172 30.5503 32 30.75 32L35.4375 32C35.6372 32 35.8296 31.9172 35.9746 31.7687C36.1196 31.6202 36.2065 31.4172 36.2178 31.2014L36.999 15.9813C37.0044 15.8665 36.9888 15.7517 36.9521 15.6438C36.9155 15.5359 36.8589 15.4371 36.7861 15.3536C36.7129 15.2701 36.625 15.2036 36.5273 15.1581C36.4302 15.1125 36.3252 15.089 36.2188 15.0887ZM34.6982 30.3088L31.4893 30.3088L30.7944 16.7799L35.3926 16.7799L34.6982 30.3088Z" fill="#FFB577" fill-opacity="1.000000" fill-rule="nonzero"/>
</svg>
