<svg width="120.000000" height="24.303711" viewBox="0 0 120 24.3037" fill="none" xmlns="http://www.w3.org/2000/svg" xmlns:xlink="http://www.w3.org/1999/xlink">
	<desc>
			Created with Pixso.
	</desc>
	<defs>
		<clipPath id="clip202_147">
			<rect width="120.000000" height="24.303797" fill="white" fill-opacity="0"/>
		</clipPath>
	</defs>
	<rect width="120.000000" height="24.303797" fill="#FFFFFF" fill-opacity="0"/>
	<g clip-path="url(#clip202_147)">
		<path d="M119.788 18.562L119.788 21.5317L117.296 21.5317C114.638 21.4482 113.218 20.0127 113.218 17.3164L113.218 10.5342L111.479 10.5342L111.479 7.9292L113.218 7.9292L113.218 5.0127L116.894 5.0127L116.894 7.89868L119.704 7.89868L119.704 10.4963L116.894 10.4963L116.894 16.9519C116.894 17.8254 117.068 18.5242 118.413 18.5242L119.788 18.562Z" fill="#FFB577" fill-opacity="1.000000" fill-rule="nonzero"/>
		<path d="M96.8276 14.7568L96.8276 14.5593C96.7881 13.686 96.9209 12.8132 97.2192 11.9912C97.5171 11.1692 97.9746 10.4141 98.5654 9.76904C99.1558 9.12427 99.8677 8.60229 100.661 8.23315C101.453 7.86377 102.311 7.65479 103.185 7.61768C103.359 7.61768 103.542 7.61768 103.716 7.61768C107.187 7.61768 110.233 9.63794 110.233 14.4531L110.233 15.4785L100.587 15.4785C100.686 17.696 101.886 18.9492 103.906 18.9492C105.646 18.9492 106.458 18.1899 106.693 17.0811L110.165 17.0811C109.739 19.9746 107.43 21.5847 103.777 21.5847C99.7671 21.5544 96.8276 19.0176 96.8276 14.7568ZM106.618 13.1543C106.488 11.134 105.471 10.1619 103.701 10.1619C101.932 10.1619 100.914 11.2556 100.663 13.1543L106.618 13.1543Z" fill="#FFB577" fill-opacity="1.000000" fill-rule="nonzero"/>
		<path d="M81.8203 14.7568L81.8203 14.5593C81.7808 13.6873 81.9131 12.8157 82.2104 11.9944C82.5073 11.1733 82.9639 10.4189 83.5527 9.77441C84.1416 9.12964 84.8521 8.60742 85.6426 8.2373C86.4336 7.86719 87.29 7.65674 88.1621 7.61768C88.3369 7.61768 88.519 7.61768 88.6938 7.61768C92.1646 7.61768 95.2178 9.63794 95.2178 14.4531L95.2178 15.4785L85.5801 15.4785C85.6787 17.696 86.8784 18.9492 88.8989 18.9492C90.6382 18.9492 91.4507 18.1899 91.686 17.0811L95.1572 17.0811C94.7241 19.9746 92.4155 21.5847 88.7622 21.5847C84.7598 21.5544 81.8203 19.0176 81.8203 14.7568ZM91.6104 13.1543C91.481 11.134 90.4634 10.1619 88.6938 10.1619C86.9243 10.1619 85.937 11.2861 85.6558 13.1467L91.6104 13.1543Z" fill="#FFB577" fill-opacity="1.000000" fill-rule="nonzero"/>
		<path d="M60.7598 7.89893L64.6484 7.89893L67.0254 16.9065L69.6309 7.89893L72.6685 7.89893L75.0229 16.9065L77.5293 7.89893L81.0913 7.89893L76.8687 21.2812L73.2231 21.2812L70.9443 12.8811L68.5068 21.2812L64.8154 21.2812L60.7598 7.89893Z" fill="#FFB577" fill-opacity="1.000000" fill-rule="nonzero"/>
		<path d="M48.4023 17.0735L51.873 17.0735C52.0327 18.281 52.6328 18.9722 54.2275 18.9722C55.6553 18.9722 56.3164 18.4329 56.3164 17.5139C56.3164 16.595 55.5566 16.2078 53.6123 15.9343C50.0503 15.395 48.6758 14.3696 48.6758 11.7571C48.6758 8.96973 51.2275 7.5874 53.9922 7.5874C56.9619 7.5874 59.2021 8.66577 59.5215 11.7419L56.0962 11.7419C56.0742 11.5042 56.0054 11.2729 55.8936 11.0618C55.7822 10.8508 55.6294 10.6641 55.4453 10.5122C55.2612 10.3604 55.0483 10.2466 54.8198 10.1772C54.5913 10.1082 54.3516 10.085 54.1138 10.1089L54 10.1089C52.7998 10.1089 52.1011 10.6709 52.1011 11.4912C52.1011 12.3115 52.7466 12.6685 54.7061 12.9495C58.0327 13.4507 59.8936 14.2937 59.8936 17.157C59.8936 20.0203 57.7896 21.5544 54.2656 21.5544C50.7417 21.5544 48.501 19.967 48.4023 17.0735Z" fill="#FFB577" fill-opacity="1.000000" fill-rule="nonzero"/>
		<path d="M33.6533 7.89868L37.3291 7.89868L37.3291 10.0176C37.7437 9.23999 38.3726 8.59741 39.1411 8.1665C39.9102 7.73584 40.7861 7.53467 41.666 7.5874C44.271 7.5874 46.1621 9.17456 46.1621 12.7974L46.1621 21.3113L42.5317 21.3113L42.5317 13.3291C42.5317 11.5139 41.8257 10.6479 40.1851 10.6479C39.8384 10.6179 39.4888 10.6565 39.1572 10.7617C38.8252 10.8667 38.5176 11.0364 38.2515 11.2607C37.9854 11.4854 37.7666 11.76 37.6069 12.0693C37.4473 12.3787 37.3506 12.7163 37.3218 13.0632C37.3027 13.2246 37.3027 13.3879 37.3218 13.5493L37.3218 21.281L33.6533 21.281L33.6533 7.89868Z" fill="#FFB577" fill-opacity="1.000000" fill-rule="nonzero"/>
		<path d="M26.5596 4.53418C26.5459 4.16772 26.6416 3.80542 26.8345 3.49341C27.0269 3.1814 27.3081 2.93359 27.6416 2.78125C27.9751 2.62891 28.3467 2.57886 28.7085 2.6377C29.0703 2.69653 29.4067 2.86157 29.6753 3.11157C29.9434 3.36182 30.1313 3.68579 30.2153 4.04297C30.2993 4.3999 30.2754 4.77368 30.1465 5.11719C30.0181 5.46069 29.79 5.75806 29.4922 5.97217C29.1943 6.18604 28.8398 6.30688 28.4731 6.31909L28.4048 6.31909C28.1772 6.3335 27.9492 6.30273 27.7339 6.22876C27.5181 6.15479 27.3193 6.03906 27.1484 5.88818C26.9775 5.73706 26.8384 5.55396 26.7388 5.34888C26.6387 5.14404 26.5806 4.92139 26.5669 4.69385C26.5605 4.64087 26.5581 4.58765 26.5596 4.53418ZM26.5596 7.89893L30.2734 7.89893L30.2734 21.281L26.5747 21.281L26.5596 7.89893Z" fill="#FFB577" fill-opacity="1.000000" fill-rule="nonzero"/>
		<path d="M12.562 2.99219L24.3037 2.99219L24.3037 6.23511L16.709 6.23511L16.709 11.0732L22.7241 11.0732L22.7241 14.1948L16.7012 14.1948L16.7012 21.2808L12.562 21.2808L12.562 2.99219Z" fill="#FFB577" fill-opacity="1.000000" fill-rule="nonzero"/>
		<path d="M5.47607 8.97729C5.47607 10.124 5.47607 11.5215 3.896 12.0911C5.51416 12.6455 5.47607 13.8228 5.47607 15.0532L5.47607 19.6101C5.47607 20.4758 5.8252 21 6.44824 21.1292C6.58496 21.1753 6.729 21.1958 6.87354 21.1899L8.39258 21.1899L8.39258 24.2278L5.88623 24.2278C3.21289 24.2278 1.73926 22.7087 1.73926 19.8911L1.73926 14.4988C1.72021 14.2219 1.59814 13.9622 1.39697 13.771C1.19629 13.5798 0.930664 13.4709 0.65332 13.4658L0 13.4658L0 10.8L0.65332 10.8C0.936035 10.7961 1.20703 10.6838 1.40918 10.4858C1.61133 10.2878 1.72949 10.0195 1.73926 9.73682L1.73926 4.26831C1.73926 1.49609 3.18213 0 5.88623 0L8.41504 0L8.41504 2.99243L6.896 2.99243C6.75195 2.99292 6.6084 3.01587 6.4707 3.06079C5.84814 3.22021 5.49854 3.73682 5.49854 4.57983L5.47607 8.97729Z" fill="#FFB577" fill-opacity="1.000000" fill-rule="nonzero"/>
	</g>
</svg>
