<svg width="96.000000" height="19.415771" viewBox="0 0 96 19.4158" fill="none" xmlns="http://www.w3.org/2000/svg" xmlns:xlink="http://www.w3.org/1999/xlink">
	<desc>
			Created with Pixso.
	</desc>
	<defs>
		<clipPath id="clip202_4">
			<rect width="96.000000" height="19.415730" fill="white" fill-opacity="0"/>
		</clipPath>
	</defs>
	<rect width="96.000000" height="19.415730" fill="#FFFFFF" fill-opacity="0"/>
	<g clip-path="url(#clip202_4)">
		<path d="M95.8296 14.8286L95.8296 17.2009L93.8369 17.2009C91.7104 17.1343 90.5742 15.9875 90.5742 13.8335L90.5742 8.41553L89.1826 8.41553L89.1826 6.33423L90.5742 6.33423L90.5742 4.00439L93.5146 4.00439L93.5146 6.31006L95.7627 6.31006L95.7627 8.38501L93.5146 8.38501L93.5146 13.5425C93.5146 14.2402 93.6543 14.7983 94.73 14.7983L95.8296 14.8286Z" fill="#FFB577" fill-opacity="1.000000" fill-rule="nonzero"/>
		<path d="M77.4624 11.7891L77.4624 11.6313C77.4307 10.9336 77.5371 10.2363 77.7759 9.57959C78.0142 8.92285 78.3804 8.31958 78.8525 7.80444C79.3252 7.28931 79.8945 6.87231 80.5288 6.57739C81.1631 6.28247 81.8491 6.11523 82.5483 6.08569C82.688 6.08569 82.8335 6.08569 82.9736 6.08569C85.75 6.08569 88.1865 7.69971 88.1865 11.5464L88.1865 12.3655L80.4702 12.3655C80.5493 14.1372 81.5093 15.1382 83.1255 15.1382C84.5166 15.1382 85.167 14.5315 85.355 13.6458L88.1318 13.6458C87.7915 15.9573 85.9443 17.2437 83.022 17.2437C79.814 17.2195 77.4624 15.1929 77.4624 11.7891ZM85.2944 10.5088C85.1909 8.89502 84.377 8.11816 82.9614 8.11816C81.5454 8.11816 80.7314 8.99194 80.5308 10.5088L85.2944 10.5088Z" fill="#FFB577" fill-opacity="1.000000" fill-rule="nonzero"/>
		<path d="M65.4561 11.7891L65.4561 11.6313C65.4243 10.9346 65.5303 10.238 65.7681 9.58228C66.0059 8.92627 66.3711 8.32349 66.8418 7.80859C67.313 7.29346 67.8813 6.87622 68.5142 6.58057C69.147 6.28516 69.8315 6.11694 70.5298 6.08569C70.6694 6.08569 70.8154 6.08569 70.9551 6.08569C73.7314 6.08569 76.1743 7.69971 76.1743 11.5464L76.1743 12.3655L68.4639 12.3655C68.543 14.1372 69.5029 15.1382 71.1191 15.1382C72.5103 15.1382 73.1606 14.5315 73.3486 13.6458L76.1255 13.6458C75.7793 15.9573 73.9321 17.2437 71.0098 17.2437C67.8076 17.2195 65.4561 15.1929 65.4561 11.7891ZM73.2881 10.5088C73.1846 8.89502 72.3706 8.11816 70.9551 8.11816C69.5391 8.11816 68.7495 9.01636 68.5244 10.5027L73.2881 10.5088Z" fill="#FFB577" fill-opacity="1.000000" fill-rule="nonzero"/>
		<path d="M48.6074 6.31006L51.7183 6.31006L53.6201 13.5061L55.7041 6.31006L58.1343 6.31006L60.0181 13.5061L62.0229 6.31006L64.8726 6.31006L61.4946 17.0007L58.5781 17.0007L56.7554 10.2903L54.8047 17.0007L51.8521 17.0007L48.6074 6.31006Z" fill="#FFB577" fill-opacity="1.000000" fill-rule="nonzero"/>
		<path d="M38.7222 13.6394L41.499 13.6394C41.6265 14.6042 42.1064 15.1562 43.3823 15.1562C44.5249 15.1562 45.0532 14.7256 45.0532 13.9915C45.0532 13.2573 44.4458 12.9478 42.8901 12.7292C40.0405 12.2986 38.9409 11.4795 38.9409 9.39233C38.9409 7.16553 40.9824 6.06128 43.1938 6.06128C45.5698 6.06128 47.3623 6.92285 47.6172 9.38013L44.877 9.38013C44.8594 9.19019 44.8047 9.00562 44.7153 8.83691C44.626 8.66821 44.5039 8.51904 44.3564 8.39771C44.209 8.27637 44.0391 8.18555 43.856 8.13037C43.6733 8.07495 43.4814 8.0564 43.2915 8.07568L43.2002 8.07568C42.2402 8.07568 41.6812 8.52466 41.6812 9.17993C41.6812 9.83521 42.1978 10.1204 43.7651 10.345C46.4263 10.7454 47.915 11.4187 47.915 13.7063C47.915 15.9937 46.2319 17.2192 43.4126 17.2192C40.5938 17.2192 38.8013 15.9512 38.7222 13.6394Z" fill="#FFB577" fill-opacity="1.000000" fill-rule="nonzero"/>
		<path d="M26.9224 6.31006L29.8633 6.31006L29.8633 8.00293C30.1948 7.38159 30.6978 6.86816 31.3125 6.52393C31.9277 6.17993 32.6289 6.01929 33.3325 6.06128C35.4165 6.06128 36.9297 7.32935 36.9297 10.2234L36.9297 17.0251L34.0254 17.0251L34.0254 10.6482C34.0254 9.198 33.46 8.50635 32.1475 8.50635C31.8701 8.48218 31.5908 8.51318 31.3252 8.59717C31.0601 8.68115 30.814 8.81665 30.6011 8.99585C30.3882 9.17529 30.2129 9.39478 30.085 9.64185C29.9575 9.88892 29.8799 10.1587 29.8569 10.4358C29.8418 10.5649 29.8418 10.6951 29.8569 10.8242L29.8569 17.0007L26.9224 17.0007L26.9224 6.31006Z" fill="#FFB577" fill-opacity="1.000000" fill-rule="nonzero"/>
		<path d="M21.2476 3.62231C21.2368 3.32959 21.3135 3.04028 21.4678 2.79102C21.6216 2.5415 21.8467 2.34351 22.1133 2.22192C22.3804 2.1001 22.6772 2.0603 22.9668 2.10742C23.2563 2.1543 23.5259 2.28613 23.7402 2.48584C23.9546 2.68579 24.105 2.94458 24.1724 3.22974C24.2393 3.51514 24.2202 3.81372 24.1172 4.08813C24.0146 4.3623 23.832 4.6001 23.5938 4.771C23.3555 4.94189 23.0718 5.03833 22.7788 5.0481L22.7241 5.0481C22.542 5.05981 22.3594 5.03516 22.187 4.97607C22.0146 4.91699 21.8555 4.82446 21.7188 4.70386C21.582 4.58325 21.4707 4.43677 21.3911 4.27319C21.311 4.10938 21.2646 3.93164 21.2534 3.74976C21.2485 3.70752 21.2466 3.66504 21.2476 3.62231ZM21.2476 6.3103L24.2188 6.3103L24.2188 17.001L21.2598 17.001L21.2476 6.3103Z" fill="#FFB577" fill-opacity="1.000000" fill-rule="nonzero"/>
		<path d="M10.0498 2.39062L19.4434 2.39062L19.4434 4.98145L13.3672 4.98145L13.3672 8.84644L18.1792 8.84644L18.1792 11.3401L13.3613 11.3401L13.3613 17.001L10.0498 17.001L10.0498 2.39062Z" fill="#FFB577" fill-opacity="1.000000" fill-rule="nonzero"/>
		<path d="M4.38086 7.17163C4.38086 8.08789 4.38086 9.20435 3.11719 9.65942C4.41113 10.1023 4.38086 11.0427 4.38086 12.0256L4.38086 15.666C4.38086 16.3577 4.66016 16.7764 5.15869 16.8796C5.26807 16.9165 5.3833 16.9329 5.49854 16.928L6.71387 16.928L6.71387 19.355L4.70898 19.355C2.57031 19.355 1.3916 18.1416 1.3916 15.8906L1.3916 11.5828C1.37646 11.3616 1.27881 11.1541 1.11768 11.0012C0.957031 10.8486 0.744629 10.7615 0.522461 10.7576L0 10.7576L0 8.62793L0.522461 8.62793C0.749023 8.625 0.965332 8.53491 1.12744 8.37671C1.28906 8.21875 1.38379 8.00439 1.3916 7.77832L1.3916 3.40991C1.3916 1.19531 2.5459 0 4.70898 0L6.73193 0L6.73193 2.39062L5.51709 2.39062C5.40137 2.39087 5.28662 2.40942 5.17676 2.44507C4.67871 2.57251 4.39893 2.98511 4.39893 3.65869L4.38086 7.17163Z" fill="#FFB577" fill-opacity="1.000000" fill-rule="nonzero"/>
	</g>
</svg>
